<svg id="Grupo_5" data-name="Grupo 5" xmlns="http://www.w3.org/2000/svg" width="1772" height="1772" viewBox="0 0 1772 1772">
  <defs>
    <style>
      .cls-1, .cls-4 {
        fill: #93cf9a;
      }

      .cls-1, .cls-5, .cls-7 {
        stroke: #93cf9a;
      }

      .cls-1, .cls-10, .cls-11, .cls-12, .cls-13, .cls-14, .cls-15, .cls-18, .cls-2, .cls-3, .cls-8, .cls-9 {
        stroke-linecap: round;
      }

      .cls-1, .cls-10, .cls-11, .cls-12, .cls-13, .cls-14, .cls-15, .cls-18, .cls-2, .cls-3, .cls-5, .cls-7, .cls-8, .cls-9 {
        stroke-linejoin: round;
      }

      .cls-1, .cls-14, .cls-15, .cls-16, .cls-8 {
        stroke-width: 5px;
      }

      .cls-1, .cls-10, .cls-11, .cls-12, .cls-15, .cls-16, .cls-18, .cls-2, .cls-3, .cls-5, .cls-6, .cls-7, .cls-8, .cls-9 {
        fill-rule: evenodd;
      }

      .cls-12, .cls-16, .cls-18, .cls-2, .cls-5, .cls-7 {
        fill: none;
      }

      .cls-2, .cls-3 {
        stroke: #417f4e;
        stroke-width: 28px;
      }

      .cls-3, .cls-6 {
        fill: #417f4e;
      }

      .cls-4 {
        font-size: 87.5px;
        font-weight: 700;
      }

      .cls-17, .cls-4 {
        font-family: Arial;
      }

      .cls-5, .cls-7 {
        stroke-linecap: square;
      }

      .cls-5 {
        stroke-width: 9px;
      }

      .cls-7 {
        stroke-width: 25px;
      }

      .cls-11, .cls-8 {
        fill: #e67877;
        stroke: #e67877;
      }

      .cls-10, .cls-9 {
        fill: #ff8b84;
        stroke: #ff8b84;
      }

      .cls-13, .cls-18, .cls-9 {
        stroke-width: 12px;
      }

      .cls-10, .cls-11 {
        stroke-width: 3px;
      }

      .cls-12, .cls-13 {
        stroke: #252525;
      }

      .cls-12 {
        stroke-width: 20px;
      }

      .cls-13 {
        fill: #252525;
      }

      .cls-14 {
        fill: #fec10d;
        stroke: #fec10d;
      }

      .cls-15 {
        fill: #f6ac05;
        stroke: #f6ac05;
      }

      .cls-16, .cls-18 {
        stroke: #f27200;
      }

      .cls-16 {
        stroke-dasharray: 20 10;
      }

      .cls-17 {
        font-size: 208.333px;
        fill: #f27200;
      }
    </style>
  </defs>
  <g id="Grupo_3_copia_2" data-name="Grupo 3 copia 2">
    <path id="Forma_7" data-name="Forma 7" class="cls-1" d="M511.827,696.243l43.326,417.217,817.007-72.66L1324.8,625.241Z"/>
    <path id="Forma_8" data-name="Forma 8" class="cls-2" d="M534.79,713.936l41.524,382.684,774.216-75.76-40.89-375.21Z"/>
    <path id="Forma_9" data-name="Forma 9" class="cls-3" d="M642.977,726.455s-1.717,82.414-77.637,94.874C550.614,772.035,547,734.37,547,734.37Z"/>
    <path id="Forma_10" data-name="Forma 10" class="cls-3" d="M578.968,989.67s89.346-5.25,96.21,75.39a639.316,639.316,0,0,1-86.819,16.4Z"/>
    <path id="Forma_11" data-name="Forma 11" class="cls-3" d="M1209.11,673.178s18.98,76.12,86.65,77.824c-0.89-45.2-4.89-89.114-4.89-89.114Z"/>
    <path id="Forma_12" data-name="Forma 12" class="cls-3" d="M1240.7,1009.39s-9.3-79.288,74.2-95.9c3.43,37.956,13.25,86.985,13.25,86.985Z"/>
    <g id="Grupo_2" data-name="Grupo 2">
      <text id="S" class="cls-4" transform="translate(1271.862 1002.52) rotate(-2.123) scale(0.872)">S</text>
      <path id="Forma_13" data-name="Forma 13" class="cls-5" d="M1285.72,943.828l1.22,4.781"/>
      <path id="Forma_14" data-name="Forma 14" class="cls-5" d="M1293.59,997.185l1.83,7.175"/>
    </g>
    <g id="Grupo_2_copia" data-name="Grupo 2 copia">
      <text id="S-2" data-name="S" class="cls-4" transform="translate(1250.554 724.14) rotate(-2.123) scale(0.872)">S</text>
      <path id="Forma_13-2" data-name="Forma 13" class="cls-5" d="M1264.41,665.448l1.22,4.781"/>
      <path id="Forma_14-2" data-name="Forma 14" class="cls-5" d="M1272.28,718.805l1.83,7.17"/>
    </g>
    <g id="Grupo_2_copia_2" data-name="Grupo 2 copia 2">
      <text id="S-3" data-name="S" class="cls-4" transform="translate(594.821 1070.061) rotate(-2.123) scale(0.872)">S</text>
      <path id="Forma_13-3" data-name="Forma 13" class="cls-5" d="M608.679,1011.37l1.218,4.78"/>
      <path id="Forma_14-3" data-name="Forma 14" class="cls-5" d="M616.549,1064.73l1.828,7.17"/>
    </g>
    <g id="Grupo_2_copia_3" data-name="Grupo 2 copia 3">
      <text id="S-4" data-name="S" class="cls-4" transform="translate(563.321 786.642) rotate(-2.123) scale(0.872)">S</text>
      <path id="Forma_13-4" data-name="Forma 13" class="cls-5" d="M577.178,727.951l1.219,4.78"/>
      <path id="Forma_14-4" data-name="Forma 14" class="cls-5" d="M585.049,781.307l1.827,7.171"/>
    </g>
    <path id="Elipse_2" data-name="Elipse 2" class="cls-6" d="M1036.57,717.784a177.026,177.026,0,1,1-242.6,61.825A177.025,177.025,0,0,1,1036.57,717.784Z"/>
    <g id="Grupo_2_copia_4" data-name="Grupo 2 copia 4">
      <text id="S-5" data-name="S" class="cls-4" transform="translate(878.007 972.89) rotate(-2.123) scale(3.024)">S</text>
      <path id="Forma_13-5" data-name="Forma 13" class="cls-7" d="M926.055,769.4l4.224,16.574"/>
      <path id="Forma_14-5" data-name="Forma 14" class="cls-7" d="M953.343,954.392l6.335,24.86"/>
    </g>
  </g>
  <g id="Grupo_3_copia" data-name="Grupo 3 copia">
    <path id="Forma_7-2" data-name="Forma 7" class="cls-1" d="M413.4,721.327l143.78,394.053L1331.79,845.638,1184.51,454.183Z"/>
    <path id="Forma_8-2" data-name="Forma 8" class="cls-2" d="M439.989,732.885l133.607,361L1305.95,831.573l-131.17-353.9Z"/>
    <path id="Forma_9-2" data-name="Forma 9" class="cls-3" d="M547.963,718.639S566.4,798.983,495.81,829.584c-26.3-44.214-39-79.859-39-79.859Z"/>
    <path id="Forma_10-2" data-name="Forma 10" class="cls-3" d="M550.086,989.516s85.367-26.883,111.691,49.644a640.14,640.14,0,0,1-80.2,37.08Z"/>
    <path id="Forma_11-2" data-name="Forma 11" class="cls-3" d="M1084,528.889s36.98,69.191,103.02,54.34c-11.88-43.616-26.48-85.23-26.48-85.23Z"/>
    <path id="Forma_12-2" data-name="Forma 12" class="cls-3" d="M1196.65,847.242s-28.37-74.624,48.56-111.105c12.59,35.97,34.07,81.122,34.07,81.122Z"/>
    <g id="Grupo_2-2" data-name="Grupo 2">
      <text id="S-6" data-name="S" class="cls-4" transform="translate(1225.187 832.98) rotate(-16.24) scale(0.872)">S</text>
      <path id="Forma_13-6" data-name="Forma 13" class="cls-5" d="M1224.31,772.68l2.35,4.339"/>
      <path id="Forma_14-6" data-name="Forma 14" class="cls-5" d="M1244.96,822.505l3.52,6.509"/>
    </g>
    <g id="Grupo_2_copia-2" data-name="Grupo 2 copia">
      <text id="S-7" data-name="S" class="cls-4" transform="translate(1136.626 568.204) rotate(-16.24) scale(0.872)">S</text>
      <path id="Forma_13-7" data-name="Forma 13" class="cls-5" d="M1135.75,507.9l2.35,4.339"/>
      <path id="Forma_14-7" data-name="Forma 14" class="cls-5" d="M1156.4,557.73l3.52,6.508"/>
    </g>
    <g id="Grupo_2_copia_2-2" data-name="Grupo 2 copia 2">
      <text id="S-8" data-name="S" class="cls-4" transform="translate(585.068 1063.613) rotate(-16.24) scale(0.872)">S</text>
      <path id="Forma_13-8" data-name="Forma 13" class="cls-5" d="M584.192,1003.31l2.348,4.34"/>
      <path id="Forma_14-8" data-name="Forma 14" class="cls-5" d="M604.839,1053.14l3.521,6.51"/>
    </g>
    <g id="Grupo_2_copia_3-2" data-name="Grupo 2 copia 3">
      <text id="S-9" data-name="S" class="cls-4" transform="translate(485.392 796.438) rotate(-16.24) scale(0.872)">S</text>
      <path id="Forma_13-9" data-name="Forma 13" class="cls-5" d="M484.516,736.138l2.347,4.339"/>
      <path id="Forma_14-9" data-name="Forma 14" class="cls-5" d="M505.162,785.964l3.522,6.508"/>
    </g>
    <path id="Elipse_2-2" data-name="Elipse 2" class="cls-6" d="M927.558,614.23A177.028,177.028,0,1,1,707.363,733.359,177.028,177.028,0,0,1,927.558,614.23Z"/>
    <g id="Grupo_2_copia_4-2" data-name="Grupo 2 copia 4">
      <text id="S-10" data-name="S" class="cls-4" transform="matrix(2.903, -0.846, 0.846, 2.903, 835.999, 900.305)">S</text>
      <path id="Forma_13-10" data-name="Forma 13" class="cls-7" d="M832.966,691.242l8.139,15.043"/>
      <path id="Forma_14-10" data-name="Forma 14" class="cls-7" d="M904.55,863.992l12.208,22.565"/>
    </g>
  </g>
  <g id="Grupo_3" data-name="Grupo 3">
    <path id="Forma_7-3" data-name="Forma 7" class="cls-1" d="M349.7,747.184L553.711,1113.69,1276.21,725.4,1069.15,362Z"/>
    <path id="Forma_8-3" data-name="Forma 8" class="cls-2" d="M377.774,754.414L566.535,1089.88,1248.48,715.574,1063.24,386.731Z"/>
    <path id="Forma_9-3" data-name="Forma 9" class="cls-3" d="M482.16,723.351s30.852,76.441-34.041,117.77C415.184,801.6,397.037,768.4,397.037,768.4Z"/>
    <path id="Forma_10-3" data-name="Forma 10" class="cls-3" d="M526.891,990.518S606.963,950.534,645,1021.96a638.965,638.965,0,0,1-73.362,49.24Z"/>
    <path id="Forma_11-3" data-name="Forma 11" class="cls-3" d="M981.655,451.6s47.4,62.51,110.285,37.449c-18.6-41.2-39.57-80-39.57-80Z"/>
    <path id="Forma_12-3" data-name="Forma 12" class="cls-3" d="M1143,748.252s-39.76-69.23,30.47-117.363c18.09,33.54,46.41,74.748,46.41,74.748Z"/>
    <g id="Grupo_2-3" data-name="Grupo 2">
      <text id="S-11" data-name="S" class="cls-4" transform="matrix(0.788, -0.373, 0.373, 0.788, 1168.941, 729.674)">S</text>
      <path id="Forma_13-11" data-name="Forma 13" class="cls-5" d="M1158.59,670.265l3,3.915"/>
      <path id="Forma_14-11" data-name="Forma 14" class="cls-5" d="M1186.82,716.22l4.5,5.873"/>
    </g>
    <g id="Grupo_2_copia-3" data-name="Grupo 2 copia">
      <text id="S-12" data-name="S" class="cls-4" transform="matrix(0.788, -0.373, 0.373, 0.788, 1039.808, 482.138)">S</text>
      <path id="Forma_13-12" data-name="Forma 13" class="cls-5" d="M1029.45,422.728l3,3.916"/>
      <path id="Forma_14-12" data-name="Forma 14" class="cls-5" d="M1057.68,468.683l4.51,5.873"/>
    </g>
    <g id="Grupo_2_copia_2-3" data-name="Grupo 2 copia 2">
      <text id="S-13" data-name="S" class="cls-4" transform="matrix(0.788, -0.373, 0.373, 0.788, 573.098, 1058.185)">S</text>
      <path id="Forma_13-13" data-name="Forma 13" class="cls-5" d="M562.744,998.776l3,3.914"/>
      <path id="Forma_14-13" data-name="Forma 14" class="cls-5" d="M590.975,1044.73l4.5,5.87"/>
    </g>
    <g id="Grupo_2_copia_3-3" data-name="Grupo 2 copia 3">
      <text id="S-14" data-name="S" class="cls-4" transform="matrix(0.788, -0.373, 0.373, 0.788, 432.613, 810.027)">S</text>
      <path id="Forma_13-14" data-name="Forma 13" class="cls-5" d="M422.258,750.618l3,3.915"/>
      <path id="Forma_14-14" data-name="Forma 14" class="cls-5" d="M450.49,796.573l4.5,5.873"/>
    </g>
    <path id="Elipse_2-3" data-name="Elipse 2" class="cls-6" d="M840.591,560.5a177.028,177.028,0,1,1-198.7,152.3A177.031,177.031,0,0,1,840.591,560.5Z"/>
    <g id="Grupo_2_copia_4-3" data-name="Grupo 2 copia 4">
      <text id="S-15" data-name="S" class="cls-4" transform="translate(795.201 857.418) rotate(-25.295) scale(3.024)">S</text>
      <path id="Forma_13-15" data-name="Forma 13" class="cls-7" d="M759.3,651.438l10.4,13.574"/>
      <path id="Forma_14-15" data-name="Forma 14" class="cls-7" d="M857.18,810.768l15.607,20.362"/>
    </g>
  </g>
  <g id="Grupo_1" data-name="Grupo 1">
    <path id="Forma_6" data-name="Forma 6" class="cls-8" d="M1256,1025s101.16-16.36,110-94c9.03-51.877-54-69.483-74-66,4.85,3.709,38.86,15.786,47,37s12.3,47.14-24,77S1256,1025,1256,1025Z"/>
    <path id="Forma_5" data-name="Forma 5" class="cls-9" d="M1308,958l40,3-9,19s-31.01,1.72-33,2-6.91-9.545-7-11S1308,958,1308,958Z"/>
    <path id="Forma_4" data-name="Forma 4" class="cls-9" d="M1249,986s91.8-11.772,80-65c-10.28-63.081-65.9-4.716-44,20,17.43,18.451,94.22,31.766,134-30-21.84,52.653-63.1,90.54-155,49-35.58-23.621-5.45-94.956,37-93,37.43-.164,111.11,42.676,19,131-40.57,21.57-65,25-65,25Z"/>
    <path id="Forma_1" data-name="Forma 1" class="cls-10" d="M610.15,805.013L542.533,697.952l171.861,33.809S1131.24,581.085,1249.7,971.24c58.06,199.33-118.33,304.28-118.33,304.28s-1.04,135.11-36.63,135.23-84.52,0-84.52,0-34.766,7.19-33.808-50.71c-36.071,3.82-63.506,4.17-104.244,2.82s-70.435-8.45-70.435-8.45l-8.452,33.8s-2.7,21.95-19.722,22.54-78.887,0-78.887,0-31.754,7.12-30.991-45.07-22.539-84.53-22.539-84.53-98.8-79.88-107.062-135.23c-27.887-14.13-67.617-25.36-67.617-25.36s-12.739,1.88-11.27-81.7C455.218,973.363,455,970,455,970s-5.625-31.288,64.993-29.752C529.652,894.559,579.285,816.587,610.15,805.013Z"/>
    <path id="Forma_3" data-name="Forma 3" class="cls-11" d="M1176.45,825.893s210.73,262.507-45.08,449.627c-7.06,132.77-33.81,135.59-33.81,135.59h-95.79s-30.155,3.9-30.993-45.43c-67.463,3.81-113.023,3.63-166.226-5.64-3.405,31.53.532,51.07-42.261,51.07H686.22s-28.466,0-30.991-93.33C988.51,1300.52,1172.53,1162.64,1176.45,825.893Z"/>
    <path id="Forma_2" data-name="Forma 2" class="cls-12" d="M757,773s117.828-48.518,247-2"/>
    <circle id="Elipse_1" data-name="Elipse 1" class="cls-13" cx="624.235" cy="909.265" r="22.546"/>
  </g>
  <g id="Grupo_4" data-name="Grupo 4">
    <circle id="Elipse_3" data-name="Elipse 3" class="cls-14" cx="884" cy="505" r="124"/>
    <path id="Elipse_3_copia_2" data-name="Elipse 3 copia 2" class="cls-15" d="M884,381a124,124,0,0,1,0,248C884.247,511.38,884.42,474.759,884,381Z"/>
    <path id="Elipse_3_copia" data-name="Elipse 3 copia" class="cls-16" d="M884.967,389A115,115,0,1,1,769.935,504,115.016,115.016,0,0,1,884.967,389Z"/>
    <text id="S-16" data-name="S" class="cls-17" x="802.875" y="429.735">S</text>
    <path id="Forma_15" data-name="Forma 15" class="cls-18" d="M883,438V416"/>
    <path id="Forma_15_copia" data-name="Forma 15 copia" class="cls-18" d="M884,593V571"/>
  </g>
</svg>
